<?xml version="1.0" encoding="UTF-8" standalone="no"?>
<svg
   xmlns:dc="http://purl.org/dc/elements/1.1/"
   xmlns:cc="http://creativecommons.org/ns#"
   xmlns:rdf="http://www.w3.org/1999/02/22-rdf-syntax-ns#"
   xmlns:svg="http://www.w3.org/2000/svg"
   xmlns="http://www.w3.org/2000/svg"
   xmlns:sodipodi="http://sodipodi.sourceforge.net/DTD/sodipodi-0.dtd"
   xmlns:inkscape="http://www.inkscape.org/namespaces/inkscape"
   version="1.1"
   x="0px"
   y="0px"
   viewBox="0 0 279.99999 280"
   enable-background="new 0 0 276.252 233.625"
   xml:space="preserve"
   id="svg2"
   inkscape:version="0.91 r13725"
   sodipodi:docname="noun_Construction_2029.svg"
   width="280"
   height="280"><metadata
     id="metadata18"><rdf:RDF><cc:Work
         rdf:about=""><dc:format>image/svg+xml</dc:format><dc:type
           rdf:resource="http://purl.org/dc/dcmitype/StillImage" /><dc:title></dc:title></cc:Work></rdf:RDF></metadata><defs
     id="defs16" /><sodipodi:namedview
     pagecolor="#ffffff"
     bordercolor="#666666"
     borderopacity="1"
     objecttolerance="10"
     gridtolerance="10"
     guidetolerance="10"
     inkscape:pageopacity="0"
     inkscape:pageshadow="2"
     inkscape:window-width="1920"
     inkscape:window-height="1031"
     id="namedview14"
     showgrid="false"
     inkscape:zoom="2.2857444"
     inkscape:cx="150.10543"
     inkscape:cy="159.06059"
     inkscape:window-x="0"
     inkscape:window-y="27"
     inkscape:window-maximized="1"
     inkscape:current-layer="svg2" /><g
     id="g4"
     transform="translate(1.8734584,23.1875)"
     style="fill:#ffffff"><path
       d="m 150.59,45.375 c 12.504,0 22.693,-10.143 22.693,-22.677 C 173.284,10.173 163.094,0 150.59,0 c -12.56,0 -22.707,10.173 -22.707,22.698 0.001,12.534 10.148,22.677 22.707,22.677 z"
       id="path6"
       inkscape:connector-curvature="0"
       style="fill:#ffffff" /><path
       d="m 145.064,197.108 c -3.314,2.213 -8.893,6.08 -8.893,6.08 l -2.761,6.633 -3.863,4.416 -7.19,0 -17.175,12.76 171.071,0 -7.735,-7.761 -6.131,-6.105 -9.942,0.554 -6.629,-7.182 c 0,0 -4.974,-8.288 -4.974,-9.969 0,-1.655 1.11,-7.765 -0.557,-8.837 -1.655,-1.132 -7.225,-4.45 -7.225,-4.45 l -13.262,0.554 -7.228,-8.837 -7.19,-9.973 -8.841,-1.681 c 0,0 -5.569,0.553 -7.73,3.314 -2.26,2.786 -7.229,4.994 -12.202,7.229 -1.391,0.618 -2.825,1.323 -4.175,2.018 l -66.913,-54.536 32.312,-62.644 -32.649,-47.063 -68.656,0 -9.02,46.124 -13.333,-10.867 c -2.863,-2.31 -7.029,-1.91 -9.394,0.953 -2.31,2.863 -1.855,7.033 1.013,9.343 L 31.67,78.277 15.373,95.88 16.59,157.277 0.465,216.875 c -1.915,7.08 2.259,14.389 9.338,16.295 1.153,0.307 2.357,0.455 3.463,0.455 5.88,0 11.253,-3.893 12.861,-9.819 l 17.074,-63.286 2.604,-47.849 33.964,40.089 -31.692,58.465 c -3.467,6.48 -1.106,14.543 5.369,18.031 2.013,1.106 4.174,1.608 6.335,1.608 4.718,0 9.288,-2.511 11.696,-6.956 l 40.286,-74.412 -16.152,-19.094 66.632,54.318 -4.475,6.262 c 0,0 -9.391,3.897 -12.704,6.126 z M 86.666,105.97 72.921,94.767 98.557,83.598 86.666,105.97 Z M 52.591,35.985 69.175,38.193 47.622,60.342 52.591,35.985 Z"
       id="path8"
       inkscape:connector-curvature="0"
       style="fill:#ffffff" /></g></svg>